<?xml version="1.0" standalone="no"?>
<!DOCTYPE svg PUBLIC "-//W3C//DTD SVG 20010904//EN"
 "http://www.w3.org/TR/2001/REC-SVG-20010904/DTD/svg10.dtd">
<svg version="1.0" xmlns="http://www.w3.org/2000/svg"
 width="128.000000pt" height="128.000000pt" viewBox="0 0 128.000000 128.000000"
 preserveAspectRatio="xMidYMid meet">
<metadata>
Created by potrace 1.11, written by Peter Selinger 2001-2013
</metadata>
<g transform="translate(0.000000,128.000000) scale(0.100000,-0.100000)"
fill="#000000" stroke="none">
<path d="M450 1269 c-32 -13 -79 -57 -93 -89 -6 -14 -14 -83 -17 -155 l-5
-129 -105 -2 c-135 -1 -172 -18 -214 -100 -23 -47 -23 -601 1 -648 42 -83 77
-99 226 -102 l117 -2 -47 43 c-44 40 -53 44 -100 45 -64 0 -97 14 -112 47 -17
36 -17 549 -1 584 16 34 49 49 111 49 44 0 54 5 92 39 23 21 61 48 85 60 l42
21 0 106 c0 100 1 106 26 129 29 27 72 32 241 27 91 -3 104 -6 127 -27 25 -23
26 -29 26 -129 l0 -106 41 -20 c36 -19 73 -47 115 -87 7 -7 35 -13 63 -13 63
0 97 -15 111 -51 11 -25 14 -193 11 -517 -1 -45 -5 -58 -30 -83 -26 -25 -37
-29 -88 -29 -54 0 -61 -3 -100 -41 -24 -22 -43 -42 -43 -44 0 -3 51 -3 113 -2
119 4 153 14 193 59 40 44 44 79 44 375 0 242 -2 289 -16 316 -46 91 -77 102
-296 106 l-28 1 0 113 c0 61 -5 128 -10 147 -11 39 -59 89 -102 108 -33 14
-342 14 -378 1z"/>
<path d="M556 1149 c-34 -4 -54 -12 -67 -28 -27 -33 -24 -86 6 -116 23 -24 30
-25 143 -25 113 0 121 1 146 25 52 48 19 144 -51 146 -15 0 -50 2 -78 2 -27 1
-72 -1 -99 -4z"/>
<path d="M532 926 c-179 -45 -321 -195 -353 -371 -37 -202 68 -412 254 -506
92 -47 246 -58 353 -25 69 21 164 86 214 145 209 251 101 635 -210 746 -62 22
-193 28 -258 11z m269 -113 c82 -41 141 -100 182 -183 29 -59 32 -73 32 -160
0 -87 -3 -101 -32 -161 -41 -82 -100 -141 -183 -182 -59 -29 -73 -32 -160 -32
-82 0 -103 4 -152 27 -80 37 -152 107 -191 187 -29 60 -32 74 -32 161 0 81 4
103 26 151 46 97 117 164 218 205 45 19 72 23 141 21 74 -2 95 -6 151 -34z"/>
<path d="M580 720 c-119 -32 -195 -132 -194 -255 1 -95 52 -179 137 -222 62
-31 159 -35 220 -9 48 21 107 80 132 131 23 51 24 155 1 208 -21 48 -85 112
-133 132 -42 18 -124 25 -163 15z m158 -117 c50 -40 67 -77 66 -141 -3 -93
-73 -157 -170 -156 -91 0 -157 68 -158 164 -1 48 4 63 27 93 61 80 164 97 235
40z"/>
</g>
</svg>
